<?xml version="1.0" encoding="UTF-8"?>
<svg version="1.1" xmlns="http://www.w3.org/2000/svg" width="512" height="512">
<path d="M0 0 C1.1758667 -0.00574036 1.1758667 -0.00574036 2.37548828 -0.01159668 C4.02963549 -0.01431353 5.68382583 -0.0069681 7.33789062 0.00976562 C9.86686162 0.03118108 12.39299214 0.00995903 14.921875 -0.015625 C16.53125626 -0.01298168 18.14063575 -0.00785661 19.75 0 C20.5042627 -0.00809692 21.25852539 -0.01619385 22.03564453 -0.02453613 C25.23283262 0.03243949 27.54800345 0.34955668 30.35839844 1.91113281 C32.7868498 6.10658356 32.36527136 10.22750087 32.265625 14.984375 C32.25996521 15.99973328 32.25430542 17.01509155 32.24847412 18.06121826 C32.22609753 21.30171001 32.17589755 24.5410929 32.125 27.78125 C32.10493671 29.97915069 32.08668565 32.17706872 32.0703125 34.375 C32.02622871 39.7607945 31.95930373 45.14594303 31.875 50.53125 C32.62065216 50.52458817 33.36630432 50.51792633 34.134552 50.51106262 C41.22334236 50.45050376 48.31204043 50.40505103 55.40101814 50.37581348 C59.04398927 50.36027595 62.68674349 50.33926116 66.32958984 50.30493164 C69.8568924 50.2719058 73.38398872 50.25430792 76.91143417 50.24661827 C78.88634809 50.23852295 80.86118111 50.21517614 82.83596802 50.19136047 C100.79494482 50.18807932 116.59486357 54.54931295 129.69921875 67.2890625 C130.77623047 68.39894531 130.77623047 68.39894531 131.875 69.53125 C132.52082031 70.16804688 133.16664063 70.80484375 133.83203125 71.4609375 C140.42598673 78.38530905 144.76177412 87.23305611 146.875 96.53125 C148.195 96.86125 149.515 97.19125 150.875 97.53125 C151.019375 96.70625 151.16375 95.88125 151.3125 95.03125 C153.57004152 89.97435699 157.36960986 86.69546339 161.875 83.53125 C162.865 83.53125 163.855 83.53125 164.875 83.53125 C164.85405273 82.89098877 164.83310547 82.25072754 164.81152344 81.59106445 C164.72810716 78.67545425 164.67626031 75.76009548 164.625 72.84375 C164.59148437 71.83634766 164.55796875 70.82894531 164.5234375 69.79101562 C164.42441525 62.29007997 164.42441525 62.29007997 166.7421875 58.38671875 C169.28372632 56.17567307 170.50068222 55.53125 173.875 55.53125 C179.51355422 57.80835843 179.51355422 57.80835843 180.875 60.53125 C180.95949628 62.2716917 180.98223024 64.01534722 180.97265625 65.7578125 C180.96943359 66.7890625 180.96621094 67.8203125 180.96289062 68.8828125 C180.95451172 69.96304688 180.94613281 71.04328125 180.9375 72.15625 C180.93298828 73.24421875 180.92847656 74.3321875 180.92382812 75.453125 C180.91201776 78.14588789 180.89554778 80.83854188 180.875 83.53125 C181.64714844 83.66144531 182.41929687 83.79164062 183.21484375 83.92578125 C187.86770619 84.98480281 190.27409996 87.72432709 193.0625 91.46875 C194.63524688 94.1261499 195.84987071 96.626717 196.875 99.53125 C197.58462891 98.95117188 197.58462891 98.95117188 198.30859375 98.359375 C209.44947849 89.58565681 219.97515574 87.58448967 233.875 88.53125 C245.696069 90.39607105 254.72782304 97.20073177 261.875 106.53125 C263.53729359 109.85583718 263.60644978 112.96543231 262.875 116.53125 C258.11485375 125.13724613 250.51687474 130.3390214 241.875 134.53125 C242.22433594 135.42328125 242.57367188 136.3153125 242.93359375 137.234375 C243.38863281 138.40484375 243.84367187 139.5753125 244.3125 140.78125 C244.76496094 141.94140625 245.21742188 143.1015625 245.68359375 144.296875 C248.65498991 152.36348491 249.90059438 163.04893606 246.375 171.15625 C243.57944529 175.7389629 238.96799456 178.57579029 233.90234375 180.140625 C222.67443572 182.30399842 211.95907398 178.22151697 201.875 173.53125 C201.70484375 174.20929688 201.5346875 174.88734375 201.359375 175.5859375 C197.07258525 192.0490343 197.07258525 192.0490343 191.875 198.53125 C192.68582031 198.67820313 193.49664062 198.82515625 194.33203125 198.9765625 C206.07491703 201.35521457 216.51333375 205.68986459 223.875 215.53125 C231.98589715 229.43789501 234.08442869 243.36045422 231.19140625 259.296875 C229.23268995 265.63628875 226.21738293 270.56092444 221.875 275.53125 C221.02421875 276.54251953 221.02421875 276.54251953 220.15625 277.57421875 C218.74581403 279.24079521 217.31271429 280.88814795 215.875 282.53125 C216.90625 283.315 217.9375 284.09875 219 284.90625 C226.68285258 291.53154393 231.00795235 301.10583706 232.17626953 311.11132812 C232.3105518 313.71769238 232.34293353 316.2966957 232.3125 318.90625 C232.30114014 320.28151855 232.30114014 320.28151855 232.28955078 321.68457031 C231.99870672 333.68772592 228.33107297 343.64384456 220.0625 352.46484375 C213.39781637 358.71298465 204.96374688 363.74939578 195.625 363.59375 C193.76875 363.5628125 193.76875 363.5628125 191.875 363.53125 C192.28492188 364.29308594 192.69484375 365.05492187 193.1171875 365.83984375 C200.31948516 379.64137588 202.55072767 394.34408649 198.25 409.59375 C194.457618 420.11199416 187.90439847 428.92711821 177.8046875 434.10546875 C169.93178321 437.48095228 163.04242253 438.68548222 154.5625 439.09375 C153.72654297 439.13693359 152.89058594 439.18011719 152.02929688 439.22460938 C149.97803065 439.33010307 147.9265352 439.43112315 145.875 439.53125 C146.19726562 440.34464844 146.51953125 441.15804688 146.8515625 441.99609375 C150.7696039 455.52978637 147.36237073 469.78357824 141.3125 482.09375 C132.83522366 496.68403718 119.47399682 506.90234533 103.28390503 511.56559753 C95.9241555 513.16237286 88.36352705 512.81847579 80.87158203 512.8059082 C79.15413187 512.8102609 77.43668365 512.8154459 75.71923828 512.82139587 C71.07453063 512.83473724 66.42990459 512.83536997 61.78518152 512.83283257 C57.89870679 512.83175954 54.01224835 512.83665471 50.12577713 512.841438 C40.95216574 512.85251639 31.7785953 512.85298 22.60498047 512.84692383 C13.16133442 512.84088498 3.7178374 512.85319666 -5.72578323 512.8744939 C-13.85261826 512.89214331 -21.97940599 512.89810599 -30.10625947 512.89485615 C-34.95173901 512.89304846 -39.79711223 512.89562799 -44.64257431 512.90957069 C-49.20139505 512.92219886 -53.75998445 512.920158 -58.31880188 512.90715981 C-59.98479925 512.9048053 -61.65081315 512.90748801 -63.31679153 512.91578293 C-81.82211127 513.00122476 -97.35494793 508.55697493 -111.125 495.53125 C-123.02798875 482.94809046 -128.41196142 468.43484512 -128.5234375 451.3046875 C-128.04237013 446.74869653 -126.7309803 442.80045047 -125.125 438.53125 C-126.34574219 438.57765625 -127.56648438 438.6240625 -128.82421875 438.671875 C-144.20853518 439.08563412 -156.26488567 437.22095831 -168.125 426.53125 C-170.45710782 424.02423409 -172.3524356 421.45684173 -174.125 418.53125 C-174.51300781 417.89445312 -174.90101563 417.25765625 -175.30078125 416.6015625 C-182.04764564 404.38360445 -181.19028493 389.91222362 -178.125 376.72265625 C-176.75880155 372.36256199 -174.83427883 369.1924376 -172.125 365.53125 C-175.04395193 364.69726373 -176.60797912 364.32185654 -179.46875 365.48046875 C-184.51761049 367.47773856 -190.25978222 367.6025923 -195.37109375 365.69140625 C-205.12166023 360.04634145 -210.27550726 350.8388661 -214.125 340.53125 C-214.125 339.54125 -214.125 338.55125 -214.125 337.53125 C-214.64964844 337.7478125 -215.17429688 337.964375 -215.71484375 338.1875 C-221.46855682 340.25539022 -226.81428851 340.85910022 -232.875 340.90625 C-233.95575806 340.92655273 -233.95575806 340.92655273 -235.05834961 340.94726562 C-239.8007082 340.90782358 -243.19637869 340.22482569 -247.125 337.53125 C-251.3425877 330.83918165 -250.09379911 318.87983693 -248.4375 311.4453125 C-247.50661546 308.98622584 -246.44559353 306.80332706 -245.125 304.53125 C-244.68929687 303.75523437 -244.25359375 302.97921875 -243.8046875 302.1796875 C-238.42568871 293.39105014 -230.87326963 287.00212208 -221.125 283.53125 C-216.81136789 282.61406576 -212.5095337 281.99169476 -208.125 281.53125 C-208.62 280.520625 -209.115 279.51 -209.625 278.46875 C-211.71758529 273.06290468 -211.21726797 267.72563222 -210.9375 262.01953125 C-211.33803806 254.56785452 -216.77629337 250.82570252 -221.9453125 246.03125 C-224.27037148 243.36451569 -224.95927868 242.02854124 -225.125 238.53125 C-222.84789157 232.89269578 -222.84789157 232.89269578 -220.125 231.53125 C-213.59166667 231.29791667 -213.59166667 231.29791667 -211.125 232.53125 C-210.97804687 231.91378906 -210.83109375 231.29632813 -210.6796875 230.66015625 C-207.82656946 219.88717606 -202.18828175 212.0579529 -193.125 205.53125 C-186.45492559 201.68913112 -179.71499764 199.63435161 -172.125 198.53125 C-172.63160156 197.66113281 -172.63160156 197.66113281 -173.1484375 196.7734375 C-180.91594448 183.16907556 -182.08190929 168.78254813 -178.1640625 153.60546875 C-174.36418714 142.36298037 -166.54655422 133.9736301 -156.125 128.53125 C-149.26363043 125.49567576 -142.98831253 125.15208442 -135.5625 125.34375 C-134.55380859 125.35728516 -133.54511719 125.37082031 -132.50585938 125.38476562 C-130.04499379 125.41975424 -127.58529665 125.46883842 -125.125 125.53125 C-125.33721191 124.96712402 -125.54942383 124.40299805 -125.76806641 123.82177734 C-130.78058306 109.81198417 -128.13936497 96.77631495 -122.125 83.59375 C-114.99949637 69.38548022 -102.9720449 59.68691066 -88.47265625 53.57421875 C-78.86864488 50.58207052 -69.48855165 50.25649431 -59.48828125 50.3359375 C-58.11394967 50.33967783 -56.73961538 50.34251996 -55.36528015 50.34451294 C-51.7863907 50.35206928 -48.20766928 50.37164668 -44.62884521 50.3939209 C-40.96157096 50.41455398 -37.29426897 50.4235516 -33.62695312 50.43359375 C-26.45955966 50.45490207 -19.29230357 50.48893842 -12.125 50.53125 C-12.13388245 49.96384094 -12.14276489 49.39643188 -12.1519165 48.81182861 C-12.24039794 42.90720695 -12.30073731 37.00277354 -12.34472656 31.09765625 C-12.36484419 28.8938024 -12.39214172 26.69000193 -12.42675781 24.48632812 C-12.47526833 21.31887644 -12.49796736 18.15213032 -12.515625 14.984375 C-12.53627014 13.99882629 -12.55691528 13.01327759 -12.57818604 11.99786377 C-12.58037813 5.31797216 -12.58037813 5.31797216 -10.60839844 1.91113281 C-7.1168001 -0.02894916 -3.89313174 -0.04179232 0 0 Z M147.875 113.53125 C146.885 117.49125 145.895 121.45125 144.875 125.53125 C149.825 125.53125 154.775 125.53125 159.875 125.53125 C158.946875 124.479375 158.01875 123.4275 157.0625 122.34375 C155.13944459 120.12275643 153.66107842 118.15886798 152.1875 115.59375 C151.754375 114.913125 151.32125 114.2325 150.875 113.53125 C149.885 113.53125 148.895 113.53125 147.875 113.53125 Z " fill="#020100" transform="translate(249.125,-0.53125)"/>
<path d="M0 0 C1.28245338 -0.00507454 2.56490676 -0.01014909 3.88622236 -0.0153774 C5.31251745 -0.01597906 6.73881258 -0.01647815 8.16510773 -0.01688576 C9.67793532 -0.02090112 11.19076183 -0.02533946 12.70358706 -0.03016531 C16.86716069 -0.04212865 21.03072274 -0.04777872 25.19431019 -0.05234647 C29.68258995 -0.05830353 34.17085586 -0.06991318 38.65912628 -0.08063698 C49.50224871 -0.10515948 60.34537571 -0.11978837 71.18851733 -0.13269705 C74.25143701 -0.13640923 77.31435624 -0.14038245 80.37727547 -0.14444971 C99.39972609 -0.16968764 118.42217744 -0.19173963 137.44464111 -0.20417786 C141.85085299 -0.20710753 146.25706485 -0.2100692 150.66327667 -0.21308327 C151.75841318 -0.21382932 152.85354968 -0.21457537 153.98187214 -0.21534403 C171.71770872 -0.22799442 189.45344498 -0.26121327 207.18923467 -0.3028851 C225.40069977 -0.34532355 243.61211354 -0.36887514 261.82362795 -0.37409842 C272.04766605 -0.37751047 282.2715474 -0.38924139 292.4955368 -0.42220116 C301.20395879 -0.45022912 309.91219189 -0.46118895 318.62065548 -0.4500057 C323.06170525 -0.444826 327.50235964 -0.44766085 331.94335175 -0.47247124 C336.01497235 -0.49502754 340.08591502 -0.49417492 344.15754801 -0.47526737 C345.62466717 -0.47247624 347.09183293 -0.47801632 348.55887741 -0.4930803 C358.75155182 -0.59127898 368.321944 0.3634621 376.29067183 7.31481516 C383.00867191 14.25632433 384.92164759 20.02717132 385.16913605 29.57451439 C384.88494827 40.2052423 382.61574047 45.77865009 375.73163605 53.87529564 C365.81528673 61.51035714 354.19027122 60.70733491 342.29413605 60.69951439 C339.68811615 60.70312584 337.08275628 60.71261048 334.47687531 60.74027061 C332.86652793 60.75703426 331.25596107 60.7599538 329.64557648 60.74725914 C325.49050536 60.7592832 325.49050536 60.7592832 321.80780792 62.476614 C320.17633058 65.14898332 320.35824162 67.08575341 320.79413605 70.13701439 C322.21219517 72.47358905 322.21219517 72.47358905 324.79413605 74.13701439 C327.8432252 74.49558727 330.53974717 74.62407292 333.58319855 74.57060814 C335.3475223 74.58022216 337.1118452 74.58999287 338.8761673 74.59990501 C341.64075771 74.59134667 344.40511174 74.57462767 347.16962433 74.55229759 C368.51428184 74.43552413 368.51428184 74.43552413 376.6417923 81.81450462 C382.77728558 88.13143433 385.03143775 94.9327406 385.23163605 103.63701439 C384.93164013 113.32397922 382.85104813 121.17115923 375.79413605 128.13701439 C370.27722073 131.93755606 365.24655743 134.26377661 358.49806976 134.25726891 C356.85112373 134.2593309 356.85112373 134.2593309 355.17090607 134.26143456 C353.96609589 134.25783928 352.76128571 134.254244 351.51996613 134.25053978 C350.25156387 134.25068581 348.98316162 134.25083183 347.67632294 134.25098228 C344.19725857 134.2512695 340.71822859 134.24538496 337.23917222 134.23840833 C333.60366124 134.23216223 329.96814949 134.23156999 326.33263397 134.23038292 C319.44786222 134.22727332 312.56310633 134.21906491 305.67834157 134.20903343 C297.84045476 134.1978608 290.00256719 134.19235894 282.1646744 134.18733799 C266.04115233 134.176882 249.91764621 134.15928971 233.79413605 134.13701439 C233.46582794 133.05089867 233.13751984 131.96478294 232.799263 130.84575462 C232.35638439 129.39979996 231.91325587 127.95392184 231.4699173 126.50810814 C231.25500641 125.79473289 231.04009552 125.08135765 230.81867218 124.34636497 C226.20508358 109.37258765 217.67190159 98.52623525 203.79413605 91.13701439 C190.43179237 84.90017683 175.6976598 82.16871831 161.23163605 86.76201439 C159.39650022 87.4996924 157.58212702 88.29144911 155.79413605 89.13701439 C154.84151886 89.58431908 153.88890167 90.03162376 152.9074173 90.49248314 C138.59880893 97.7736713 129.61687693 109.44650747 124.45038605 124.53935814 C123.65519932 127.68697227 123.25326123 130.92313812 122.79413605 134.13701439 C83.19413605 134.13701439 43.59413605 134.13701439 2.79413605 134.13701439 C4.79413605 128.13701439 4.79413605 128.13701439 6.79413605 122.13701439 C8.21095239 122.44883508 9.62758256 122.76150176 11.04413605 123.07451439 C12.22749542 123.33554955 12.22749542 123.33554955 13.43476105 123.60185814 C14.87425829 123.92836662 16.30813628 124.28342658 17.7277298 124.68779564 C24.84148173 126.23426345 32.57580388 126.05726728 38.79413605 122.13701439 C42.50984155 115.27049104 41.70585502 105.39515643 40.10663605 97.92607689 C38.05433066 91.82046837 34.96689936 86.99596544 30.79413605 82.13701439 C29.75742351 80.92778289 28.72081038 79.71846615 27.68427277 78.5090847 C27.14325928 77.87786705 26.60224579 77.2466494 26.04483795 76.59630394 C25.63210632 76.11473839 25.21937469 75.63317284 24.79413605 75.13701439 C25.36392897 75.1364173 25.9337219 75.13582021 26.52078128 75.13520503 C60.27361288 75.09932954 94.02634096 75.04271908 127.77908771 74.95909344 C131.82967637 74.9490757 135.88026545 74.93923161 139.9308548 74.92949486 C140.73727154 74.92755348 141.54368829 74.92561211 142.37454191 74.92361191 C155.44068549 74.89257075 168.5068115 74.87560537 181.57298502 74.86382017 C194.97500165 74.85141955 208.37692587 74.82394285 221.77888417 74.78240132 C230.05204064 74.75723461 238.32504392 74.74389941 246.59823921 74.74558482 C252.2675566 74.74561452 257.93671767 74.73103169 263.60597417 74.70485011 C266.87941741 74.6901677 270.1524742 74.68419396 273.42595291 74.6912117 C276.97193973 74.69780324 280.51698219 74.68004622 284.06287384 74.65599632 C285.62123085 74.66763695 285.62123085 74.66763695 287.21106982 74.67951274 C292.6721704 74.68046704 292.6721704 74.68046704 297.43749619 72.29598427 C299.27850202 69.36618966 299.29984617 67.53249663 298.79413605 64.13701439 C297.16645139 61.91977395 296.27882446 61.21861121 293.54281598 60.75800687 C292.65389069 60.75610827 291.7649654 60.75420967 290.84910297 60.75225353 C289.82249492 60.74279699 288.79588688 60.73334045 287.73816949 60.72359735 C286.0412055 60.73086871 286.0412055 60.73086871 284.30995941 60.73828697 C283.1109153 60.73164015 281.91187118 60.72499332 280.67649239 60.71814507 C277.34245151 60.70268421 274.00888618 60.70068326 270.67484319 60.70427454 C267.08177844 60.70489687 263.4887892 60.68829259 259.89575958 60.67375755 C253.66868092 60.6509354 247.44165832 60.63908023 241.21454048 60.6346283 C232.21113769 60.62817573 223.20783642 60.60525418 214.20447447 60.578285 C199.59790132 60.53498017 184.99133243 60.50503455 170.38471222 60.48344994 C156.19393568 60.46245131 142.00319405 60.43518598 127.81244659 60.39946556 C126.93804506 60.39726674 126.06364353 60.39506791 125.16274498 60.39280245 C120.77622374 60.38173308 116.38970282 60.37054022 112.00318205 60.35928595 C75.60019686 60.26604854 39.19719442 60.19447484 2.79413605 60.13701439 C2.55257284 57.39654779 2.33256477 54.65716828 2.12470245 51.914114 C2.05429245 51.14044235 1.98388245 50.36677071 1.91133881 49.56965446 C1.59316263 45.12255112 1.48918187 42.28773594 4.50507355 38.70342064 C6.27851105 37.11943626 6.27851105 37.11943626 8.16913605 35.69951439 C9.38579731 34.65975262 10.60196786 33.6194163 11.81757355 32.57842064 C12.79983917 31.77275658 13.7821048 30.96709251 14.79413605 30.13701439 C16.3357678 27.05375089 16.0916114 24.52823339 15.79413605 21.13701439 C13.72419825 18.76041914 12.49099909 18.21582628 9.37421417 17.86333275 C6.13762805 18.20665344 5.34880393 19.06254712 3.20038605 21.45342064 C2.56230011 22.13469017 1.92421417 22.8159597 1.2667923 23.51787376 C-0.05025631 24.97445128 -1.36535707 26.43279238 -2.6785202 27.89287376 C-3.31660614 28.57285423 -3.95469208 29.2528347 -4.61211395 29.95342064 C-5.18252411 30.58707542 -5.75293427 31.22073021 -6.34062958 31.87358665 C-8.20586395 33.13701439 -8.20586395 33.13701439 -10.69487762 32.84209251 C-11.52350311 32.60941673 -12.3521286 32.37674095 -13.20586395 32.13701439 C-15.82068354 32.06927295 -18.40565651 32.04201181 -21.01836395 32.07451439 C-21.71123505 32.07902611 -22.40410614 32.08353783 -23.11797333 32.08818626 C-24.81397464 32.09988282 -26.50993098 32.11781515 -28.20586395 32.13701439 C-28.64539102 23.28135789 -28.11338752 16.59569066 -22.58086395 9.44951439 C-16.40832954 2.70602054 -8.93197224 0.01875642 0 0 Z " fill="#FEA625" transform="translate(81.20586395263672,213.8629856109619)"/>
<path d="M0 0 C1.0521082 -0.00551503 1.0521082 -0.00551503 2.12547112 -0.01114148 C4.47582608 -0.02215439 6.82613679 -0.02601814 9.17651367 -0.02983093 C10.86204671 -0.03609758 12.54757837 -0.04274456 14.23310852 -0.04974365 C19.7702234 -0.07076922 25.3073385 -0.08114727 30.84448242 -0.09111023 C32.75356053 -0.09515888 34.66263849 -0.09927584 36.57171631 -0.10346031 C45.54505268 -0.1225117 54.51838085 -0.13674069 63.49173355 -0.14507228 C73.8328029 -0.15483329 84.17365755 -0.1811233 94.5146513 -0.22157317 C102.51740285 -0.2517966 110.52009309 -0.2665472 118.52290058 -0.26985329 C123.29756005 -0.27219742 128.07199015 -0.28107403 132.84658813 -0.30631447 C137.34464121 -0.32970822 141.84231575 -0.33378331 146.34041405 -0.32355309 C147.98342338 -0.32306029 149.62645205 -0.32930444 151.26940346 -0.34310913 C166.78042404 -0.46605209 179.11270816 2.62669272 190.71948242 13.39717102 C194.52310121 17.40566857 197.97775552 21.99503742 200.03198242 27.14717102 C199.68823242 29.95185852 199.68823242 29.95185852 199.03198242 32.14717102 C197.54698242 32.64217102 197.54698242 32.64217102 196.03198242 33.14717102 C196.03198242 36.44717102 196.03198242 39.74717102 196.03198242 43.14717102 C198.01198242 44.13717102 199.99198242 45.12717102 202.03198242 46.14717102 C201.76189457 50.01843029 201.27261494 51.85306461 198.78198242 54.89717102 C194.16296462 58.6763674 190.43408037 59.39702839 184.52853394 59.41891479 C183.21338806 59.42863312 181.89824219 59.43835144 180.54324341 59.44836426 C179.09271248 59.4491344 177.64218146 59.44972344 176.19165039 59.45014954 C174.65884962 59.45781364 173.12605305 59.46636057 171.59326172 59.47572327 C168.29699113 59.49398083 165.00077703 59.50603274 161.70446396 59.5132618 C156.49441117 59.52475442 151.28448357 59.5502124 146.07449341 59.57757568 C137.83695867 59.61920351 129.59941792 59.65162998 121.36182797 59.68004984 C106.60118405 59.73105539 91.84059228 59.79314208 77.08003724 59.86539024 C71.89839311 59.89032846 66.71676557 59.90975257 61.53508353 59.92477238 C58.31619504 59.93496319 55.09733238 59.9491089 51.87846375 59.96424866 C50.38327263 59.97041336 48.88807335 59.97486751 47.39287186 59.97750664 C45.35572241 59.98130842 43.31858835 59.99167928 41.28146362 60.00241089 C40.14032545 60.0062658 38.99918728 60.01012072 37.82346916 60.01409245 C34.94740812 60.02497704 34.94740812 60.02497704 32.03198242 61.14717102 C31.95066779 62.58372956 31.89264683 64.02161932 31.84448242 65.45967102 C31.80967773 66.26017883 31.77487305 67.06068665 31.73901367 67.88545227 C31.86836178 70.14397023 31.86836178 70.14397023 33.06506062 71.76360798 C36.09126539 73.89228695 39.22730176 73.56896266 42.79570007 73.54589844 C43.59455606 73.55254526 44.39341204 73.55919209 45.21647578 73.56604034 C47.90209523 73.58474166 50.58727195 73.5820603 53.27294922 73.57954407 C55.194556 73.58855688 57.11615701 73.59888291 59.03775024 73.61042786 C64.26262762 73.63808043 69.48739616 73.64729357 74.71233726 73.65328193 C80.16966323 73.66264415 85.62690722 73.68884573 91.08418274 73.71328735 C101.42198749 73.75701539 111.75977638 73.78552361 122.09764558 73.80861074 C133.86537383 73.83562866 145.63301985 73.87954223 157.40068948 73.92489946 C181.61107593 74.01783602 205.82148817 74.08947545 230.03198242 74.14717102 C229.89150482 74.82159744 229.75102722 75.49602386 229.60629272 76.19088745 C229.33240219 77.52771828 229.33240219 77.52771828 229.05297852 78.89155579 C228.87125092 79.77223221 228.68952332 80.65290863 228.50228882 81.56027222 C226.23394846 94.03717452 228.17794839 105.20027829 234.84448242 115.95967102 C237.37464065 119.57048507 240.20872512 122.29443658 243.71166992 124.95576477 C244.14737305 125.34892883 244.58307617 125.7420929 245.03198242 126.14717102 C245.03198242 126.80717102 245.03198242 127.46717102 245.03198242 128.14717102 C239.32376584 131.55014629 235.46885806 133.26848327 228.73637009 133.2813921 C227.65697025 133.28584994 226.57757041 133.29030779 225.46546149 133.29490072 C224.28026679 133.29471635 223.09507209 133.29453199 221.8739624 133.29434204 C220.61437155 133.29801873 219.3547807 133.30169542 218.05702043 133.30548352 C214.55841482 133.31549398 211.05982638 133.31921876 207.56120849 133.32187283 C203.78875866 133.32577864 200.01632239 133.33535669 196.24388123 133.34408569 C187.13308823 133.36384081 178.02229413 133.37391445 168.91148508 133.38281348 C164.62090315 133.38719736 160.33032246 133.39256386 156.03974152 133.39780235 C141.77721793 133.41481259 127.51469511 133.42930729 113.25216293 133.43655109 C109.55165353 133.43846098 105.85114414 133.44038131 102.15063477 133.44233704 C101.23089529 133.44282078 100.31115582 133.44330452 99.36354545 133.44380292 C84.46058911 133.45210527 69.55771299 133.47744655 54.65479168 133.50991771 C39.3542569 133.5429835 24.05376289 133.56099936 8.75319219 133.56419533 C0.16244484 133.56636072 -8.42818548 133.57511372 -17.01889801 133.60065651 C-24.33414593 133.62235682 -31.64924838 133.63041719 -38.96452484 133.62068973 C-42.69619848 133.61614324 -46.42757196 133.61805121 -50.15920448 133.63745117 C-54.20703543 133.65831311 -58.25419993 133.64810356 -62.30206299 133.63491821 C-63.4783348 133.64588746 -64.65460661 133.6568567 -65.86652303 133.66815835 C-74.05690338 133.60367057 -79.24903767 132.26073559 -85.65551758 126.89717102 C-93.85123985 117.1509067 -94.7715056 108.81052783 -94.18579102 96.40644836 C-93.43623288 88.63020286 -88.9664983 83.50780209 -83.22583008 78.61982727 C-77.518308 74.89710094 -72.64332686 73.70234563 -65.87719727 73.73066711 C-65.10070831 73.72208176 -64.32421936 73.7134964 -63.52420044 73.70465088 C-60.97933697 73.67972837 -58.43486659 73.67522491 -55.88989258 73.67060852 C-54.11345238 73.65628772 -52.33702324 73.64052877 -50.56060791 73.62339783 C-45.89951772 73.58165553 -41.23849618 73.55658364 -36.57727051 73.53590393 C-29.1029452 73.50000496 -21.62878901 73.43911317 -14.1546402 73.3774147 C-11.54496806 73.35832848 -8.93534131 73.34659815 -6.32562256 73.33598328 C-4.73083395 73.32577363 -3.13604629 73.31541592 -1.54125977 73.30488586 C-0.81498383 73.30384354 -0.08870789 73.30280121 0.65957642 73.30172729 C3.7248962 73.27667075 6.09977366 73.12457394 9.03198242 72.14717102 C9.14034695 70.71134101 9.21774409 69.27315082 9.28198242 67.83467102 C9.32838867 67.03416321 9.37479492 66.2336554 9.42260742 65.40888977 C9.22999005 63.0638832 9.22999005 63.0638832 7.5246582 61.52900696 C4.00516234 59.57794461 0.67763543 59.74472762 -3.24145508 59.77607727 C-4.88729047 59.75869292 -6.53312376 59.74110856 -8.17895508 59.7233429 C-10.76167726 59.71328098 -13.344261 59.70967184 -15.92700195 59.71138 C-18.42806793 59.7077975 -20.92807796 59.6804088 -23.42895508 59.65107727 C-24.57767593 59.66335106 -24.57767593 59.66335106 -25.74960327 59.6758728 C-31.81414964 59.59220391 -35.16931746 57.55984354 -39.78051758 53.58467102 C-43.52453998 49.05243338 -42.51132125 41.67637581 -42.19018555 36.09980774 C-40.95823778 25.27220528 -33.3152697 15.27658297 -25.06176758 8.56123352 C-17.02852053 3.13579428 -9.64581799 0.03280669 0 0 Z " fill="#FEA625" transform="translate(178.968017578125,65.85282897949219)"/>
<path d="M0 0 C10.58617667 6.10957537 17.55241177 14.43242323 21.33984375 26.08984375 C23.99189713 37.78084829 21.54060044 49.7344146 15.25 59.875 C10.1504097 66.85810732 3.93647492 71.6574926 -4 75 C-5.04800781 75.53947266 -5.04800781 75.53947266 -6.1171875 76.08984375 C-10.38290881 77.43660942 -14.49231294 77.28885087 -18.9375 77.25 C-20.25911133 77.26160156 -20.25911133 77.26160156 -21.60742188 77.2734375 C-26.52842216 77.25869293 -30.34390197 76.72649474 -35 75 C-37.51363014 74.76226017 -37.51363014 74.76226017 -39.875 74.875 C-40.65617188 74.89304687 -41.43734375 74.91109375 -42.2421875 74.9296875 C-42.82226562 74.95289063 -43.40234375 74.97609375 -44 75 C-44.6297426 77.85806255 -45.10187339 80.11537449 -45 83 C-41.58009506 88.12985741 -36.7589362 89.62246333 -31 91 C-27.21880929 91.42603518 -23.48999542 91.47743359 -19.6875 91.4375 C-18.67002686 91.42920166 -17.65255371 91.42090332 -16.60424805 91.41235352 C-9.12265524 91.24404613 -2.75624227 90.398229 4 87 C5.010625 86.50242187 6.02125 86.00484375 7.0625 85.4921875 C21.86341398 77.53669624 30.07237575 65.81893734 35 50 C35.33880384 48.66804623 35.67306372 47.33491631 36 46 C48.62211327 45.90717138 61.24414484 45.83616952 73.86653042 45.79275131 C79.72811917 45.77190892 85.58947374 45.74365207 91.45092773 45.69824219 C97.11139784 45.65466561 102.77164319 45.63083772 108.43226814 45.62049103 C110.58795775 45.61312089 112.74363556 45.5987288 114.89922905 45.57707977 C117.92714549 45.54788922 120.95414241 45.54405059 123.98217773 45.54589844 C124.86619263 45.53151733 125.75020752 45.51713623 126.66101074 45.50231934 C134.50187155 45.55383226 141.37318664 48.01017751 147.3125 53.25 C147.92738281 53.77078125 148.54226563 54.2915625 149.17578125 54.828125 C154.45006226 61.10756877 155.62671534 66.9430889 155.4375 75 C155.44458984 75.85078125 155.45167969 76.7015625 155.45898438 77.578125 C155.37803702 85.69776735 153.38335233 92.31929559 147.80859375 98.39453125 C141.56651112 103.93555924 134.92674857 106.11806907 126.68063068 106.13422108 C125.62137357 106.13867892 124.56211646 106.14313676 123.47076064 106.14772969 C122.31318871 106.14754533 121.15561679 106.14736097 119.96296692 106.14717102 C118.72843409 106.15084771 117.49390126 106.1545244 116.22195834 106.1583125 C112.79787095 106.16742317 109.37383142 106.17204546 105.94973648 106.17470181 C102.25565784 106.17861181 98.561593 106.18818955 94.86752319 106.19691467 C85.94846268 106.21665792 77.02940107 106.2267419 68.11032417 106.23564246 C63.90816568 106.24002827 59.70600844 106.24539426 55.50385094 106.25063133 C41.5320973 106.26764034 27.56034444 106.28213454 13.58858204 106.28938007 C9.96457226 106.2912899 6.34056249 106.29321024 2.71655273 106.29516602 C1.36549424 106.29589163 1.36549424 106.29589163 -0.01285837 106.2966319 C-14.60400757 106.30493241 -29.1950748 106.33027116 -43.78618821 106.36274669 C-58.77262089 106.39582975 -73.75901192 106.4138299 -88.74548131 106.41702431 C-97.15742632 106.41918809 -105.56925173 106.42791757 -113.98116112 106.45348549 C-121.14481355 106.4752094 -128.30831732 106.48323456 -135.47199895 106.47351871 C-139.12494448 106.46897907 -142.77758337 106.47084029 -146.43048668 106.49028015 C-150.39646725 106.51120331 -154.36202727 106.5009103 -158.32804871 106.48774719 C-160.04767619 106.50420106 -160.04767619 106.50420106 -161.80204362 106.52098733 C-170.31403214 106.45287137 -179.19451135 104.8243806 -185.6171875 98.6953125 C-193.20621977 89.39124469 -194.35917898 79.70337922 -193.29833984 68.11425781 C-192.21573157 60.44209118 -188.05095151 55.41521805 -182.35546875 50.47265625 C-175.70867166 46.31703021 -169.74211689 45.56650815 -162.09570312 45.65942383 C-161.138685 45.65898575 -160.18166687 45.65854767 -159.19564819 45.65809631 C-156.05730218 45.66017313 -152.91950178 45.68345192 -149.78125 45.70703125 C-147.59550264 45.71263114 -145.4097515 45.71689938 -143.22399902 45.71989441 C-137.48976118 45.73131219 -131.7557537 45.76075305 -126.02160645 45.79400635 C-120.16287349 45.82477338 -114.30410307 45.83841391 -108.4453125 45.85351562 C-96.96344082 45.88562563 -85.48173962 45.93678488 -74 46 C-73.68546875 46.97582031 -73.3709375 47.95164062 -73.046875 48.95703125 C-72.61528366 50.24242286 -72.182953 51.52756639 -71.75 52.8125 C-71.54503906 53.45509766 -71.34007812 54.09769531 -71.12890625 54.75976562 C-69.80384039 58.63457942 -68.71436865 61.09262151 -65 63 C-61.32706204 62.77962372 -59.63033454 62.63033454 -57 60 C-56.59655166 55.40068888 -56.82866358 52.10569593 -58.5 47.8125 C-61.64612769 39.0665661 -60.77575747 30.04551277 -57.26171875 21.5625 C-51.2315272 9.31542366 -43.46111185 2.42896393 -31 -3 C-21.25471099 -6.24842967 -9.02209137 -4.43586159 0 0 Z " fill="#FDA625" transform="translate(278,317)"/>
<path d="M0 0 C1.50094985 -0.00218283 3.00189782 -0.00656525 4.50283569 -0.01294583 C8.61011777 -0.02408742 12.71674376 -0.00418017 16.8239423 0.02094448 C21.25940754 0.04258664 25.69483737 0.0352264 30.13034058 0.03143311 C37.80941051 0.02881449 45.48826761 0.044469 53.16728401 0.0726223 C64.26974263 0.11330029 75.37209861 0.12628392 86.47462367 0.13256226 C104.4887509 0.14349869 122.50276475 0.17675524 140.51683044 0.22407532 C158.01324396 0.26998775 175.50962665 0.30537143 193.00608826 0.32661438 C194.08501614 0.327928 195.16394403 0.32924161 196.2755667 0.33059504 C201.6883646 0.33712034 207.1011627 0.34343886 212.51396096 0.34965456 C257.40098229 0.40146728 302.28788 0.48951486 347.17478943 0.60127258 C347.29271764 3.74678071 347.36260325 6.891708 347.42478943 10.03877258 C347.45830505 10.91726868 347.49182068 11.79576477 347.52635193 12.70088196 C347.67175919 22.55222409 343.77566918 30.39201682 337.17478943 37.60127258 C328.23873347 45.79574713 319.72686915 47.04546617 307.95042419 46.96203613 C306.61120737 46.96334582 305.2719913 46.96597523 303.93277931 46.96980363 C300.26804633 46.97648862 296.60357806 46.96454356 292.93887877 46.94946945 C288.98124586 46.93648451 285.02362724 46.94090028 281.065979 46.94317627 C274.21417215 46.94474745 267.36245115 46.93535447 260.51066589 46.91846275 C250.60421298 46.89405628 240.69780148 46.8862658 230.79132175 46.88249878 C214.71778616 46.87593688 198.64429629 46.85598281 182.57078552 46.82759094 C166.9591342 46.8000436 151.34749531 46.77881332 135.73582458 46.7660675 C134.7731268 46.76527933 133.81042902 46.76449116 132.81855857 46.76367911 C127.98886871 46.75976393 123.15917876 46.75597282 118.32948875 46.7522434 C78.27789029 46.72115564 38.22634288 46.66832696 -1.82521057 46.60127258 C-2.39170837 44.70225525 -2.39170837 44.70225525 -2.82521057 42.60127258 C-1.76124573 40.98554993 -1.76124573 40.98554993 -0.11427307 39.43721008 C0.4709613 38.87260071 1.05619568 38.30799133 1.65916443 37.72627258 C2.28307068 37.14877258 2.90697693 36.57127258 3.54978943 35.97627258 C4.7678194 34.81939893 5.98405332 33.66063046 7.19822693 32.49971008 C7.74398376 31.99101379 8.2897406 31.4823175 8.85203552 30.95820618 C11.07954877 28.67313445 11.19037174 27.42986718 11.48728943 24.16377258 C11.52883053 20.6241408 11.52883053 20.6241408 9.48728943 18.66377258 C6.75046051 17.40631065 5.16260271 17.28434046 2.17478943 17.60127258 C0.22352021 18.9633955 0.22352021 18.9633955 -1.41896057 20.91767883 C-2.05704651 21.59894836 -2.69513245 22.2802179 -3.35255432 22.98213196 C-4.66960292 24.43870947 -5.98470369 25.89705057 -7.29786682 27.35713196 C-7.93595276 28.03711243 -8.5740387 28.7170929 -9.23146057 29.41767883 C-9.80187073 30.05133362 -10.37228088 30.6849884 -10.9599762 31.33784485 C-12.82521057 32.60127258 -12.82521057 32.60127258 -15.31422424 32.30635071 C-16.14284973 32.07367493 -16.97147522 31.84099915 -17.82521057 31.60127258 C-20.44003016 31.53353114 -23.02500313 31.50627 -25.63771057 31.53877258 C-26.33058167 31.5432843 -27.02345276 31.54779602 -27.73731995 31.55244446 C-29.43332125 31.56414102 -31.1292776 31.58207334 -32.82521057 31.60127258 C-33.26473764 22.74561608 -32.73273413 16.05994885 -27.20021057 8.91377258 C-19.19595907 0.57628551 -11.17100887 -0.12117195 0 0 Z " fill="#FEA625" transform="translate(85.82521057128906,214.3987274169922)"/>
<path d="M0 0 C0.90194709 -0.00538554 1.80389419 -0.01077108 2.73317301 -0.01631981 C5.75012146 -0.03060708 8.76663163 -0.02349368 11.78359985 -0.01637268 C13.94882052 -0.02207587 16.11403818 -0.02903993 18.2792511 -0.03717041 C24.15738796 -0.05512337 30.03537572 -0.05392927 35.91353178 -0.04822803 C40.82161302 -0.04513901 45.72966549 -0.0512255 50.63774264 -0.05726677 C62.21747325 -0.07131767 73.7971301 -0.06974623 85.37686157 -0.05836487 C97.32046315 -0.04688523 109.26384014 -0.0609556 121.20741212 -0.08776134 C131.46406491 -0.10991861 141.7206472 -0.11655558 151.97732222 -0.11068493 C158.10211732 -0.10731398 164.22676847 -0.10973966 170.35154343 -0.12693596 C176.1119679 -0.14240309 181.87205976 -0.13845178 187.63247108 -0.11963081 C189.74479038 -0.11594421 191.85713431 -0.11905543 193.96943092 -0.1295166 C196.85687524 -0.14272318 199.74321796 -0.13118154 202.63061523 -0.11352539 C203.87937142 -0.1279329 203.87937142 -0.1279329 205.153355 -0.14263147 C210.84147135 -0.07124958 215.1878362 1.19911488 219.94229126 4.38768005 C224.57590063 9.37772091 225.29792482 12.5963277 225.21963501 19.2509613 C224.08488072 32.08487252 217.31006246 43.20425888 207.65322876 51.41111755 C195.79217456 60.05909079 182.93307308 60.68864049 168.79678345 60.6782074 C167.17124628 60.68420017 165.54571194 60.69100743 163.92018127 60.69856262 C159.52533804 60.71615414 155.13057279 60.72091511 150.73569775 60.72219419 C147.9838576 60.7236203 145.23203699 60.7278986 142.48020172 60.73318863 C132.86257173 60.75166665 123.24499701 60.75986209 113.62734985 60.75828552 C104.69038998 60.75708491 95.7536719 60.7781772 86.81677318 60.80977285 C79.12047473 60.83600388 71.42425494 60.84664996 63.72791219 60.8453747 C59.14165938 60.84486705 54.55562166 60.85044061 49.96941376 60.8717308 C45.65183903 60.89122858 41.33468202 60.89115965 37.01709175 60.87669754 C35.44223221 60.87462253 33.86734572 60.87923135 32.29253197 60.89141846 C18.07742578 60.99420677 5.25620934 58.63971587 -6.05770874 49.38768005 C-14.74942173 40.41794931 -20.3883048 30.02610133 -20.49520874 17.38768005 C-20.54451538 16.35900818 -20.54451538 16.35900818 -20.59481812 15.30955505 C-20.6360924 11.37724161 -20.0605454 9.39204573 -17.90536499 6.07518005 C-12.24321197 0.7314746 -7.45314688 -0.05351923 0 0 Z " fill="#FEA625" transform="translate(157.05770874023438,436.61231994628906)"/>
<path d="M0 0 C12.62211327 -0.09282862 25.24414484 -0.16383048 37.86653042 -0.20724869 C43.72811917 -0.22809108 49.58947374 -0.25634793 55.45092773 -0.30175781 C61.11139784 -0.34533439 66.77164319 -0.36916228 72.43226814 -0.37950897 C74.58795775 -0.38687911 76.74363556 -0.4012712 78.89922905 -0.42292023 C81.92714549 -0.45211078 84.95414241 -0.45594941 87.98217773 -0.45410156 C88.86619263 -0.46848267 89.75020752 -0.48286377 90.66101074 -0.49768066 C98.50187155 -0.44616774 105.37318664 2.01017751 111.3125 7.25 C111.92738281 7.77078125 112.54226563 8.2915625 113.17578125 8.828125 C118.45006226 15.10756877 119.62671534 20.9430889 119.4375 29 C119.44458984 29.85078125 119.45167969 30.7015625 119.45898438 31.578125 C119.37803702 39.69776735 117.38335233 46.31929559 111.80859375 52.39453125 C105.56651112 57.93555924 98.92674857 60.11806907 90.68063068 60.13422108 C89.62137357 60.13867892 88.56211646 60.14313676 87.47076064 60.14772969 C86.31318871 60.14754533 85.15561679 60.14736097 83.96296692 60.14717102 C82.72843409 60.15084771 81.49390126 60.1545244 80.22195834 60.1583125 C76.79787095 60.16742317 73.37383142 60.17204546 69.94973648 60.17470181 C66.25565784 60.17861181 62.561593 60.18818955 58.86752319 60.19691467 C49.94846268 60.21665792 41.02940107 60.2267419 32.11032417 60.23564246 C27.90816568 60.24002827 23.70600844 60.24539426 19.50385094 60.25063133 C5.5320973 60.26764034 -8.43965556 60.28213454 -22.41141796 60.28938007 C-26.03542774 60.2912899 -29.65943751 60.29321024 -33.28344727 60.29516602 C-34.63450576 60.29589163 -34.63450576 60.29589163 -36.01285837 60.2966319 C-50.60400757 60.30493241 -65.1950748 60.33027116 -79.78618821 60.36274669 C-94.77262089 60.39582975 -109.75901192 60.4138299 -124.74548131 60.41702431 C-133.15742632 60.41918809 -141.56925173 60.42791757 -149.98116112 60.45348549 C-157.14481355 60.4752094 -164.30831732 60.48323456 -171.47199895 60.47351871 C-175.12494448 60.46897907 -178.77758337 60.47084029 -182.43048668 60.49028015 C-186.39646725 60.51120331 -190.36202727 60.5009103 -194.32804871 60.48774719 C-196.04767619 60.50420106 -196.04767619 60.50420106 -197.80204362 60.52098733 C-207.69377063 60.44183021 -215.90269506 58.09730494 -223 51 C-223.70447442 49.6862504 -224.37967903 48.35551618 -225 47 C-224.17653391 46.99576806 -223.35306782 46.99153612 -222.50464821 46.98717594 C-202.39471446 46.88351538 -182.28481324 46.77482755 -162.17493629 46.66066074 C-152.4496434 46.60556788 -142.72434684 46.55212749 -132.99902344 46.50268555 C-124.51464968 46.45954807 -116.03030032 46.41319981 -107.5459646 46.36312145 C-103.06067674 46.33675607 -98.57539296 46.31191319 -94.09007645 46.29092598 C-89.85314646 46.27104999 -85.6162619 46.24682422 -81.37937355 46.21950912 C-79.83888784 46.21029951 -78.2983923 46.20256993 -76.7578907 46.19658089 C-68.6079519 46.16397035 -60.47621004 45.99376999 -52.33554077 45.58872986 C-51.59601343 45.55551591 -50.85648608 45.52230195 -50.09454882 45.48808151 C-35.805387 44.69830346 -22.68394083 37.76586172 -12.96484375 27.37890625 C-6.30627203 19.31713651 -2.47266808 10.096172 0 0 Z " fill="#EE7800" transform="translate(314,363)"/>
<path d="M0 0 C46.67673122 -0.11447902 93.35344755 -0.20256598 140.03029151 -0.25532665 C145.54265551 -0.26158008 151.05501923 -0.2680517 156.56738281 -0.2746582 C157.66478132 -0.27596976 158.76217983 -0.27728131 159.89283285 -0.2786326 C177.65478379 -0.3003809 195.4166537 -0.33979929 213.17855659 -0.38576398 C231.40796953 -0.43254457 249.63734006 -0.4602988 267.86681056 -0.47044247 C279.11268177 -0.47729829 290.35832394 -0.49894092 301.60412464 -0.53958233 C309.31893067 -0.56604044 317.03361854 -0.57399402 324.74846664 -0.56750689 C329.19759573 -0.56430879 333.64632495 -0.56916306 338.09538269 -0.59602737 C342.17455429 -0.62047753 346.25305965 -0.62151212 350.33226284 -0.60449447 C351.80219747 -0.60239332 353.27217481 -0.60863638 354.74202624 -0.62441591 C364.94451692 -0.72751011 374.51949167 0.21893412 382.49643064 7.17782706 C389.21463542 14.119109 391.12751396 19.89025026 391.375 29.4375 C391.09081222 40.06822791 388.82160443 45.6416357 381.9375 53.73828125 C372.02115069 61.37334276 360.39613517 60.57032052 348.5 60.5625 C345.8939801 60.56611145 343.28862024 60.57559609 340.68273926 60.60325623 C339.07239188 60.62001987 337.46182502 60.62293941 335.85144043 60.61024475 C331.7102069 60.6145996 331.7102069 60.6145996 328.04882812 62.33569336 C326.82268572 64.13484643 326.82268572 64.13484643 326 67 C322.72963272 67.14510162 319.46008993 67.23399373 316.1875 67.3125 C315.25873047 67.35439453 314.32996094 67.39628906 313.37304688 67.43945312 C310.82280286 67.48548641 308.5055711 67.48332865 306 67 C303.92578125 64.54296875 303.92578125 64.54296875 303 62 C301.37068196 60.37068196 299.55148613 60.86805822 297.30106258 60.8613348 C296.27843663 60.85586036 295.25581068 60.85038591 294.20219606 60.84474558 C292.49649355 60.84327842 292.49649355 60.84327842 290.7563324 60.84178162 C289.55899713 60.83684364 288.36166186 60.83190566 287.12804371 60.82681805 C283.7896328 60.81406063 280.45126403 60.80580365 277.11283839 60.79939139 C273.51839976 60.79141016 269.92398258 60.77770461 266.32955933 60.76467896 C260.0970012 60.74288377 253.86444095 60.72475046 247.63186455 60.70907402 C238.62050262 60.68640302 229.60916441 60.65825641 220.59782255 60.62875474 C205.97904385 60.58104479 191.36025547 60.53778986 176.74145508 60.49731445 C162.53702033 60.45797682 148.33259419 60.41655477 134.12817383 60.37231445 C132.81578336 60.36822804 132.81578336 60.36822804 131.47687995 60.36405908 C127.0878176 60.35037989 122.69875538 60.33665956 118.30969322 60.32291877 C81.87314664 60.20890055 45.4365816 60.10217691 9 60 C9 55.71 9 51.42 9 47 C10.6554376 46.99853344 12.31087521 46.99706688 14.01647758 46.99555588 C53.32243918 46.95984585 92.62832561 46.90359303 131.93422001 46.82207905 C136.77320366 46.81206172 141.61218765 46.80221757 146.45117188 46.79248047 C147.89619008 46.78956841 147.89619008 46.78956841 149.37040056 46.78659752 C164.96413655 46.75558528 180.55785782 46.73859903 196.15161882 46.72680578 C212.15494468 46.71439021 228.15819339 46.68687961 244.16147053 46.64538693 C254.03456645 46.62026319 263.90753439 46.6068819 273.78066273 46.60857043 C280.55311176 46.60860021 287.32543053 46.59395368 294.09782879 46.56783572 C298.00386307 46.55320321 301.90963021 46.54497519 305.81568718 46.55419731 C309.39636704 46.56250797 312.97651108 46.55226522 316.55711164 46.52766338 C318.45648618 46.51932708 320.35591595 46.53049182 322.25527084 46.54249835 C332.58111461 46.43926591 340.65749411 44.08512677 348.24609375 36.92578125 C358.01549882 26.199018 357.24687758 16.06244847 358 1 C239.86 1 121.72 1 0 1 C0 0.67 0 0.34 0 0 Z " fill="#ED7901" transform="translate(75,214)"/>
<path d="M0 0 C10.58617667 6.10957537 17.55241177 14.43242323 21.33984375 26.08984375 C23.99189713 37.78084829 21.54060044 49.7344146 15.25 59.875 C10.1504097 66.85810732 3.93647492 71.6574926 -4 75 C-4.69867188 75.35964844 -5.39734375 75.71929687 -6.1171875 76.08984375 C-10.38290881 77.43660942 -14.49231294 77.28885087 -18.9375 77.25 C-20.25911133 77.26160156 -20.25911133 77.26160156 -21.60742188 77.2734375 C-26.52842216 77.25869293 -30.34390197 76.72649474 -35 75 C-37.51363014 74.76226017 -37.51363014 74.76226017 -39.875 74.875 C-40.65617187 74.89304687 -41.43734375 74.91109375 -42.2421875 74.9296875 C-42.82226562 74.95289063 -43.40234375 74.97609375 -44 75 C-44 75.66 -44 76.32 -44 77 C-48.17935777 75.62170116 -50.66524027 73.74081436 -53.75 70.625 C-54.91789063 69.46871094 -54.91789063 69.46871094 -56.109375 68.2890625 C-57.94343284 66.06848834 -58.82956844 64.86081544 -59 62 C-58.01 61.01 -58.01 61.01 -57 60 C-56.59655166 55.40068888 -56.82866358 52.10569593 -58.5 47.8125 C-61.64612769 39.0665661 -60.77575747 30.04551277 -57.26171875 21.5625 C-51.2315272 9.31542366 -43.46111185 2.42896393 -31 -3 C-21.25471099 -6.24842967 -9.02209137 -4.43586159 0 0 Z " fill="#E45000" transform="translate(278,317)"/>
<path d="M0 0 C28.67662317 -0.09343902 57.35322353 -0.16397719 86.02996826 -0.20724869 C99.34507669 -0.22787439 112.66004984 -0.25599524 125.97509766 -0.30175781 C137.58040206 -0.34162515 149.18563797 -0.36743277 160.79100895 -0.37635398 C166.93604576 -0.38156884 173.08088659 -0.3938262 179.2258606 -0.42292023 C185.01078652 -0.45008744 190.79543588 -0.45844222 196.58041954 -0.45243073 C198.70242504 -0.45353036 200.82443986 -0.46147626 202.94639015 -0.4768219 C205.84724805 -0.49676991 208.74706647 -0.49192133 211.64794922 -0.48101807 C212.48454606 -0.49266943 213.3211429 -0.5043208 214.18309116 -0.51632524 C219.88636487 -0.45851872 224.234456 0.79922563 229 4 C233.63360937 8.99004086 234.35563356 12.20864764 234.27734375 18.86328125 C233.14258946 31.69719246 226.3677712 42.81657883 216.7109375 51.0234375 C204.8498833 59.67141073 191.99078182 60.30096043 177.85449219 60.29052734 C176.22895502 60.29652012 174.60342068 60.30332738 172.97789001 60.31088257 C168.58304678 60.32847409 164.18828153 60.33323506 159.79340649 60.33451414 C157.04156634 60.33594025 154.28974573 60.34021855 151.53791046 60.34550858 C141.92028047 60.36398659 132.30270575 60.37218203 122.68505859 60.37060547 C113.74809872 60.36940486 104.81138064 60.39049715 95.87448192 60.4220928 C88.17818347 60.44832382 80.48196368 60.4589699 72.78562093 60.45769465 C68.19936813 60.457187 63.6133304 60.46276055 59.0271225 60.48405075 C54.70954777 60.50354853 50.39239076 60.5034796 46.07480049 60.48901749 C44.49994095 60.48694247 42.92505446 60.49155129 41.35024071 60.5037384 C29.37615129 60.5903221 17.90831633 59.27900541 7.75 52.375 C6.85796875 51.78460938 5.9659375 51.19421875 5.046875 50.5859375 C3 49 3 49 2 47 C2.79199893 46.99853344 3.58399786 46.99706688 4.39999676 46.99555588 C23.71546004 46.95842376 43.03074342 46.89932443 62.34606457 46.81609726 C71.68701128 46.77637216 81.02787454 46.74394661 90.36889648 46.72900391 C98.51526313 46.71595343 106.66144565 46.68890259 114.80770856 46.64538693 C119.11684157 46.62284814 123.42574812 46.60708474 127.7349453 46.60811615 C131.800498 46.60886728 135.86555157 46.59073693 139.93097496 46.55883217 C141.41388162 46.55039376 142.89684467 46.54854148 144.37976456 46.55419731 C160.41835893 46.60716574 173.74746125 42.58789684 186 32 C194.22251427 22.27691515 197.62821861 13.36319844 201 1 C134.67 1 68.34 1 0 1 C0 0.67 0 0.34 0 0 Z " fill="#ED7901" transform="translate(148,437)"/>
<path d="M0 0 C2.97 0 5.94 0 9 0 C8.67 1.32 8.34 2.64 8 4 C5.3236975 17.67241494 6.39782514 29.8456521 13.8125 41.8125 C16.34265823 45.42331405 19.1767427 48.14726556 22.6796875 50.80859375 C23.11539062 51.20175781 23.55109375 51.59492188 24 52 C24 52.66 24 53.32 24 54 C18.29178341 57.40297527 14.43687564 59.12131225 7.70438766 59.13422108 C6.62498783 59.13867892 5.54558799 59.14313676 4.43347907 59.14772969 C3.24828437 59.14754533 2.06308967 59.14736097 0.84197998 59.14717102 C-0.41761087 59.15084771 -1.67720172 59.1545244 -2.974962 59.1583125 C-6.4735676 59.16832296 -9.97215604 59.17204774 -13.47077394 59.17470181 C-17.24322376 59.17860762 -21.01566003 59.18818567 -24.7881012 59.19691467 C-33.89889419 59.21666979 -43.00968829 59.22674343 -52.12049735 59.23564246 C-56.41107927 59.24002634 -60.70165996 59.24539284 -64.99224091 59.25063133 C-79.25476449 59.26764157 -93.51728732 59.28213627 -107.77981949 59.28938007 C-111.48032889 59.29128996 -115.18083828 59.29321029 -118.88134766 59.29516602 C-119.80108713 59.29564976 -120.72082661 59.2961335 -121.66843697 59.2966319 C-136.57139331 59.30493425 -151.47426944 59.33027553 -166.37719074 59.36274669 C-181.67772552 59.39581248 -196.97821953 59.41382834 -212.27879024 59.41702431 C-220.86953758 59.4191897 -229.4601679 59.4279427 -238.05088043 59.45348549 C-245.36612835 59.4751858 -252.68123081 59.48324617 -259.99650726 59.47351871 C-263.7281809 59.46897222 -267.45955438 59.47088019 -271.1911869 59.49028015 C-275.23901785 59.51114209 -279.28618235 59.50093253 -283.33404541 59.48774719 C-285.09845313 59.50420106 -285.09845313 59.50420106 -286.89850545 59.52098733 C-295.22767272 59.4554068 -300.62799277 58.00548471 -306.875 52.4375 C-309 50 -309 50 -311 47 C-310.40823292 46.99940291 -309.81646584 46.99880582 -309.20676643 46.99819064 C-274.10060296 46.96226344 -238.9945324 46.90557348 -203.88844906 46.82207905 C-199.66920402 46.8120621 -195.44995859 46.80221789 -191.23071289 46.79248047 C-189.9707979 46.78956841 -189.9707979 46.78956841 -188.68543007 46.78659752 C-175.10157774 46.75561247 -161.51774229 46.73860664 -147.93386129 46.72680578 C-133.98600744 46.71437608 -120.03824188 46.68683373 -106.09044379 46.64538693 C-97.4902593 46.62030349 -88.89022133 46.60687895 -80.28999975 46.60857043 C-74.38514316 46.60860028 -68.48043535 46.59389416 -62.57563678 46.56783572 C-59.17343788 46.55324932 -55.77179886 46.54712622 -52.36953735 46.55419731 C-48.6690754 46.56086187 -44.96949276 46.54285582 -41.26911926 46.51898193 C-40.20973878 46.52674235 -39.1503583 46.53450277 -38.05887538 46.54249835 C-26.53332286 46.41163182 -16.40357308 43.68258002 -8.09765625 35.51171875 C-2.98944535 29.39518317 0.15172862 22.45583528 0.09765625 14.453125 C0.09282227 13.18662109 0.09282227 13.18662109 0.08789062 11.89453125 C0.07951172 11.02183594 0.07113281 10.14914063 0.0625 9.25 C0.05573242 7.91775391 0.05573242 7.91775391 0.04882812 6.55859375 C0.03707422 4.37236684 0.01913966 2.18617472 0 0 Z " fill="#F47B00" transform="translate(400,140)"/>
<path d="M0 0 C11.19573244 -0.02312269 22.39145924 -0.04091471 33.58721066 -0.05181217 C38.78528115 -0.05704116 43.98333536 -0.0641391 49.18139648 -0.07543945 C54.19342268 -0.08626776 59.20543318 -0.09227671 64.21747017 -0.09487724 C66.13412282 -0.09673159 68.05077457 -0.1003524 69.96742058 -0.10573006 C72.64228072 -0.11293975 75.31707514 -0.11399097 77.99194336 -0.11352539 C78.7925116 -0.11712067 79.59307983 -0.12071594 80.41790771 -0.12442017 C85.88594784 -0.11405216 85.88594784 -0.11405216 87 1 C87.94499658 13.45536471 87.13695105 26.28941486 78.76171875 36.2890625 C70.14473392 44.65766417 60.80798286 47.46822484 49.0859375 47.34057617 C48.0216301 47.34101425 46.95732269 47.34145233 45.86076355 47.34190369 C42.36531825 47.33982437 38.87036085 47.31653324 35.375 47.29296875 C32.94262962 47.28736976 30.51025584 47.2831011 28.07788086 47.28010559 C21.69263277 47.26868073 15.30759114 47.23923361 8.92242432 47.20599365 C2.4001342 47.17524202 -4.12218945 47.16158936 -10.64453125 47.14648438 C-23.42977531 47.11436186 -36.21487664 47.06377494 -49 47 C-49 46.67 -49 46.34 -49 46 C-48.04480469 45.78085937 -47.08960938 45.56171875 -46.10546875 45.3359375 C-29.87545516 41.43491748 -16.97211994 33.99134166 -7.53515625 19.7578125 C-4.09024645 13.56924681 -1.66569206 6.87489958 0 0 Z " fill="#FDA625" transform="translate(314,363)"/>
<path d="M0 0 C13.57092714 2.65822284 23.64503691 8.27358318 31.86328125 19.55859375 C36.10843967 26.12639056 36.10843967 26.12639056 35.65234375 29.80078125 C35.32943359 30.88939453 35.32943359 30.88939453 35 32 C34.01 32.33 33.02 32.66 32 33 C32 36.3 32 39.6 32 43 C33.98 43.99 35.96 44.98 38 46 C37.72991214 49.87125927 37.24063252 51.70589359 34.75 54.75 C30.1309822 58.52919638 26.40209795 59.24985737 20.49655151 59.27174377 C19.18140564 59.2814621 17.86625977 59.29118042 16.51126099 59.30119324 C15.06073006 59.30196338 13.61019903 59.30255242 12.15966797 59.30297852 C10.6268672 59.31064262 9.09407063 59.31918955 7.5612793 59.32855225 C4.2650087 59.3468098 0.96879461 59.35886172 -2.32751846 59.36609077 C-7.53757125 59.3775834 -12.74749886 59.40304138 -17.95748901 59.43040466 C-26.19502375 59.47203249 -34.4325645 59.50445896 -42.67015445 59.53287882 C-57.43079837 59.58388437 -72.19139014 59.64597106 -86.95194519 59.71821922 C-92.13358931 59.74315743 -97.31521686 59.76258155 -102.49689889 59.77760136 C-105.71578738 59.78779217 -108.93465004 59.80193788 -112.15351868 59.81707764 C-113.6487098 59.82324233 -115.14390907 59.82769649 -116.63911057 59.83033562 C-118.67626001 59.8341374 -120.71339407 59.84450826 -122.7505188 59.85523987 C-123.89165697 59.85909478 -125.03279514 59.8629497 -126.20851326 59.86692142 C-129.0845743 59.87780602 -129.0845743 59.87780602 -132 61 C-132.33 63.31 -132.66 65.62 -133 68 C-139.93 68 -146.86 68 -154 68 C-154.66 66.02 -155.32 64.04 -156 62 C-159.7797738 59.4801508 -162.79904885 59.72093216 -167.17578125 59.7265625 C-168.82487651 59.70626779 -170.473965 59.6854169 -172.12304688 59.6640625 C-174.71677357 59.64149769 -177.31023251 59.62500513 -179.90405273 59.61914062 C-182.41178553 59.60958463 -184.9183189 59.57576617 -187.42578125 59.5390625 C-188.19473221 59.54410797 -188.96368317 59.54915344 -189.75593567 59.55435181 C-194.9544554 59.45998244 -197.8189857 58.33546485 -202 55 C-202.598125 54.525625 -203.19625 54.05125 -203.8125 53.5625 C-205.38724542 51.49046656 -205.55098601 49.53342759 -206 47 C-204.51270811 46.99780016 -204.51270811 46.99780016 -202.99536991 46.99555588 C-178.85780624 46.95894411 -154.72038114 46.89947242 -130.58293247 46.81609726 C-118.91018509 46.77630546 -107.23750514 46.74391363 -95.56469727 46.72900391 C-85.38945079 46.71598818 -75.21435268 46.68902536 -65.03918976 46.64538693 C-59.65260925 46.62277053 -54.26621175 46.60708944 -48.87957954 46.60811615 C-43.80616633 46.60886264 -38.73315769 46.59091579 -33.65984917 46.55883217 C-31.80114462 46.55033605 -29.94239468 46.54858128 -28.0836792 46.55419731 C-13.53569531 46.94453586 -13.53569531 46.94453586 -1.14582157 40.25017929 C3.91702469 34.85363766 5.38987072 29.73250612 5.375 22.375 C5.37556396 21.67221924 5.37612793 20.96943848 5.37670898 20.24536133 C5.24498266 13.93617437 3.61019004 8.73403194 1 3 C0.67 2.01 0.34 1.02 0 0 Z " fill="#F37B00" transform="translate(343,66)"/>
<path d="M0 0 C8.84343482 -0.62375324 15.64401437 -0.27334723 23 5 C28.94245833 10.17237734 32.58925409 16.75408718 33.34765625 24.59375 C33.58596658 34.95506876 32.3520846 43.00057799 25.81640625 51.20703125 C20.57831104 56.37753814 13.99146944 59.12728203 6.70393372 59.12025452 C5.6059697 59.12162918 4.50800568 59.12300385 3.37677002 59.12442017 C2.17195984 59.12082489 0.96714966 59.11722961 -0.27416992 59.11352539 C-1.54257217 59.11367142 -2.81097443 59.11381744 -4.11781311 59.1139679 C-7.59687748 59.11425511 -11.07590746 59.10837057 -14.55496383 59.10139394 C-18.19047481 59.09514785 -21.82598656 59.0945556 -25.46150208 59.09336853 C-32.34627382 59.09025893 -39.23102972 59.08205052 -46.11579448 59.07201904 C-53.95368129 59.06084641 -61.79156886 59.05534455 -69.62946165 59.05032361 C-85.75298398 59.03986761 -101.87648934 59.02207418 -118 59 C-118.99 55.04 -119.98 51.08 -121 47 C-119.8843718 46.99413376 -118.76874359 46.98826752 -117.61930847 46.98222351 C-107.0711201 46.92484404 -96.52313487 46.85200349 -85.97515392 46.76428509 C-80.5531941 46.71968523 -75.13130763 46.68040643 -69.70922852 46.65356445 C-64.47006961 46.62742764 -59.23119453 46.58695249 -53.9922123 46.53681374 C-52.00013083 46.52021496 -50.00800035 46.5086574 -48.0158596 46.50238609 C-32.91920399 46.45008218 -20.78086756 46.25891871 -9.31640625 35.40625 C0.18698049 25.35778123 -0.22028954 13.0464579 0 0 Z " fill="#F37B00" transform="translate(433,289)"/>
<path d="M0 0 C0.495 0.99 0.495 0.99 1 2 C28.72 2 56.44 2 85 2 C84.34 5.96 83.68 9.92 83 14 C43.4 14 3.8 14 -37 14 C-35.66666667 10 -34.33333333 6 -33 2 C-31.58318366 2.31182069 -30.16655349 2.62448737 -28.75 2.9375 C-27.56664063 3.19853516 -27.56664063 3.19853516 -26.359375 3.46484375 C-24.91987776 3.79135223 -23.48599977 4.14641219 -22.06640625 4.55078125 C-14.81196102 6.12783456 -7.43993349 5.72085046 -1 2 C-0.67 1.34 -0.34 0.68 0 0 Z " fill="#F37B00" transform="translate(121,334)"/>
<path d="M0 0 C4.62 0 9.24 0 14 0 C14 11.88 14 23.76 14 36 C9.38 36 4.76 36 0 36 C0 24.12 0 12.24 0 0 Z " fill="#876A5F" transform="translate(252,15)"/>
<path d="M0 0 C0.66109151 7.13978825 -0.99649165 12.04805296 -5 18 C-9.83302062 23.50284224 -15.61483692 27.55038487 -23.05859375 28.171875 C-24.70667187 28.18513921 -26.35507811 28.10280762 -28 28 C-28.65244889 20.3337255 -26.01738527 14.31675348 -21.375 8.25 C-15.55343122 1.94330049 -8.44235424 -0.78169947 0 0 Z " fill="#F7EBD9" transform="translate(43,297)"/>
<path d="M0 0 C3.05249343 1.67459689 5.8138774 3.55246513 8.5625 5.6875 C7.13944602 9.25654982 5.61593443 10.58172065 2.25 12.375 C1.49074219 12.79136719 0.73148437 13.20773438 -0.05078125 13.63671875 C-7.3809696 16.86392115 -14.94025744 16.34649299 -22.31640625 13.6875 C-25.55341344 12.16139716 -27.84838397 10.14384085 -30.4375 7.6875 C-29.0057192 4.0577422 -27.42944181 2.78511175 -24 1 C-23.21753906 0.58363281 -22.43507813 0.16726562 -21.62890625 -0.26171875 C-14.51141949 -3.67455999 -7.03843471 -3.47744623 0 0 Z " fill="#F7EBD9" transform="translate(486.4375,105.3125)"/>
<path d="M0 0 C7.13512446 -0.66065967 12.0547409 0.99130739 18 5 C23.12521329 9.58773774 27.62185682 15.12710945 28.171875 22.21484375 C28.18543696 24.14403237 28.10139841 26.07343025 28 28 C20.7322097 28.99106231 15.00565481 25.920358 9 22 C3.5516741 16.8283469 0.21384942 9.99185578 -0.1875 2.5 C-0.125625 1.675 -0.06375 0.85 0 0 Z " fill="#F9EDDA" transform="translate(80,297)"/>
<path d="M0 0 C5.34160447 5.05286909 8.58678712 9.31917867 9.23828125 16.69921875 C9.45483781 25.41846971 7.83267532 32.29242338 2 39 C0.25 38.875 0.25 38.875 -2 38 C-8.11432836 30.08733977 -9.06686345 22.8151437 -8 13 C-6.28569379 7.88345532 -3.97719333 3.67394692 0 0 Z " fill="#F9EDDB" transform="translate(429,138)"/>
<path d="M0 0 C3.38121991 2.44598887 4.76936783 3.89296559 5.625 8 C4.76936783 12.10703441 3.38121991 13.55401113 0 16 C-3.95779649 16.62491523 -6.00863886 16.61006839 -9.4375 14.5 C-11.63828902 10.97873756 -11.80414661 8.04560357 -11 4 C-8.16650967 -0.53358453 -5.10426635 -0.80593679 0 0 Z " fill="#425760" transform="translate(65,260)"/>
<path d="M0 0 C2.5 1.5625 2.5 1.5625 4 4 C4.5625 7.4375 4.5625 7.4375 4 11 C1.52506641 14.42123173 0.11736219 15.79477021 -4.0625 16.5625 C-7.61734581 15.88178485 -8.777046 14.79927541 -11 12 C-12.42041821 9.15916359 -12.31452272 7.14522722 -12 4 C-9.04487268 -0.67895159 -5.10946802 -1.01561147 0 0 Z " fill="#425760" transform="translate(426,97)"/>
<path d="M0 0 C3.43738707 -0.65912126 6.94445725 -0.46299666 10.4375 -0.4375 C11.40494141 -0.45748047 12.37238281 -0.47746094 13.36914062 -0.49804688 C14.29791016 -0.49740234 15.22667969 -0.49675781 16.18359375 -0.49609375 C17.03493896 -0.49794678 17.88628418 -0.4997998 18.76342773 -0.50170898 C21 0 21 0 22.80102539 1.84350586 C24 4 24 4 24 7 C15.09 7 6.18 7 -3 7 C-2 3 -2 3 0 0 Z " fill="#ECDD51" transform="translate(51,321)"/>
<path d="M0 0 C1.01191406 0.28875 2.02382813 0.5775 3.06640625 0.875 C2.49260453 4.53877743 1.09370967 6.20267225 -1.53125 8.765625 C-2.24990234 9.47460938 -2.96855469 10.18359375 -3.70898438 10.9140625 C-4.46373047 11.64367187 -5.21847656 12.37328125 -5.99609375 13.125 C-6.75470703 13.87007812 -7.51332031 14.61515625 -8.29492188 15.3828125 C-10.16791582 17.22046694 -12.04754986 19.05075724 -13.93359375 20.875 C-14.92359375 20.545 -15.91359375 20.215 -16.93359375 19.875 C-17.34001241 16.59013169 -17.60223641 13.97080643 -15.82763672 11.0625 C-14.26055193 9.22406075 -12.61211224 7.54927627 -10.87109375 5.875 C-10.30970703 5.27816406 -9.74832031 4.68132812 -9.16992188 4.06640625 C-5.89144411 0.82164997 -4.80163114 -0.15258411 0 0 Z " fill="#F2E253" transform="translate(469.93359375,135.125)"/>
<path d="M0 0 C2.5 0.125 2.5 0.125 3.5 1.125 C3.73527773 3.47487262 3.91386417 5.83056039 4.0625 8.1875 C4.14628906 9.47785156 4.23007813 10.76820313 4.31640625 12.09765625 C4.37699219 13.09667969 4.43757813 14.09570312 4.5 15.125 C1.86 15.125 -0.78 15.125 -3.5 15.125 C-3.52685412 12.81256208 -3.54632841 10.5000373 -3.5625 8.1875 C-3.57410156 6.89972656 -3.58570313 5.61195313 -3.59765625 4.28515625 C-3.47059734 0.17352987 -3.47059734 0.17352987 0 0 Z " fill="#EBDC51" transform="translate(61.5,290.875)"/>
<path d="M0 0 C7.48291572 6.15034169 7.48291572 6.15034169 10 10 C8.71937515 11.7074998 7.38232443 13.37373596 6 15 C4 15 4 15 2.30859375 13.390625 C1.69113281 12.68421875 1.07367188 11.9778125 0.4375 11.25 C-0.18253906 10.55390625 -0.80257813 9.8578125 -1.44140625 9.140625 C-2.98531094 7.02017445 -3.57896851 5.56079427 -4 3 C-2.68 2.01 -1.36 1.02 0 0 Z " fill="#F5E554" transform="translate(441,119)"/>
<path d="M0 0 C2 2 2 2 2.265625 3.875 C2.26046875 4.57625 2.2553125 5.2775 2.25 6 C2.25515625 6.70125 2.2603125 7.4025 2.265625 8.125 C2 10 2 10 0 12 C-2.3828125 12.1953125 -2.3828125 12.1953125 -5.125 12.125 C-6.49011719 12.09792969 -6.49011719 12.09792969 -7.8828125 12.0703125 C-8.58148438 12.04710937 -9.28015625 12.02390625 -10 12 C-8.52278578 8.54798361 -6.56205999 6.35038064 -3.875 3.75 C-3.15054687 3.04359375 -2.42609375 2.3371875 -1.6796875 1.609375 C-1.12539063 1.07828125 -0.57109375 0.5471875 0 0 Z " fill="#F1E153" transform="translate(480,152)"/>
<path d="M0 0 C4.95 0 9.9 0 15 0 C13.21077753 3.57844494 12.07285842 5.5597889 9 8 C7.0625 8.125 7.0625 8.125 5 7 C0 1.92836676 0 1.92836676 0 0 Z " fill="#F4E454" transform="translate(54,343)"/>
</svg>
