<?xml version="1.0" standalone="no"?>
<!DOCTYPE svg PUBLIC "-//W3C//DTD SVG 20010904//EN"
 "http://www.w3.org/TR/2001/REC-SVG-20010904/DTD/svg10.dtd">
<svg version="1.0" xmlns="http://www.w3.org/2000/svg"
 width="747.000000pt" height="552.000000pt" viewBox="0 0 747.000000 552.000000"
 preserveAspectRatio="xMidYMid meet">

<g transform="translate(0.000000,552.000000) scale(0.100000,-0.100000)"
fill="#000000" stroke="none">
<path d="M0 2760 l0 -2760 3730 0 3730 0 2 2760 3 2760 -3732 0 -3733 0 0
-2760z m3284 1738 c-26 -29 -74 -81 -106 -115 l-57 -63 -81 0 c-110 0 -120
-11 -120 -123 l0 -82 -54 -44 c-30 -23 -82 -72 -116 -107 l-61 -63 3 263 3
263 28 42 c50 75 73 81 361 81 l249 0 -49 -52z m661 28 c84 -35 123 -101 132
-222 l6 -74 -81 54 c-45 29 -108 63 -141 75 l-58 22 -64 -26 c-35 -15 -97 -49
-138 -76 l-74 -49 6 75 c10 129 62 202 165 232 60 17 194 11 247 -11z m872 5
c26 -12 52 -35 70 -62 l28 -42 3 -263 3 -263 -68 70 c-37 39 -89 87 -115 107
l-48 36 0 83 c0 116 -7 123 -142 123 l-103 1 -80 107 c-44 59 -81 110 -83 114
-2 5 108 8 245 8 222 0 252 -2 290 -19z m-924 -317 c95 -48 218 -171 264 -264
58 -116 77 -243 58 -378 l-7 -53 -87 83 c-86 84 -172 148 -266 200 l-49 27
-56 -30 c-80 -43 -216 -147 -284 -218 -32 -34 -60 -60 -63 -57 -2 2 -8 39 -12
81 -19 203 45 374 192 511 70 66 180 132 220 134 10 0 50 -16 90 -36z m-489
18 c3 -5 -33 -43 -79 -85 -129 -119 -226 -263 -280 -417 -17 -48 -16 -48 35
20 38 50 220 240 230 240 4 0 -13 -80 -38 -177 -41 -168 -44 -185 -43 -310 1
-128 1 -132 -23 -151 -15 -11 -49 -22 -83 -25 -84 -9 -274 -60 -459 -123 -141
-47 -164 -53 -192 -43 -36 12 -62 48 -62 85 0 35 60 169 125 279 192 326 415
522 775 681 82 37 86 38 94 26z m981 -67 c303 -146 505 -331 684 -629 63 -104
131 -255 131 -290 0 -37 -26 -73 -62 -85 -28 -10 -51 -4 -192 43 -185 63 -375
114 -459 123 -35 3 -68 14 -83 25 -24 19 -24 23 -23 151 1 124 -2 142 -44 310
-24 97 -41 177 -37 177 10 0 192 -190 230 -240 50 -67 52 -68 36 -25 -58 161
-131 274 -257 397 -145 142 -137 146 76 43z m-491 -565 c27 -17 73 -54 104
-83 53 -50 142 -161 142 -177 0 -25 -170 -83 -278 -94 -108 -12 -311 31 -376
79 -19 14 -18 16 18 69 45 66 146 164 211 205 65 41 114 42 179 1z m-630 -457
c-21 -84 -24 -257 -5 -333 8 -30 24 -76 37 -102 28 -55 28 -58 10 -58 -24 0
-190 88 -212 112 -12 13 -28 42 -37 66 -35 90 -14 168 71 264 51 56 142 132
149 124 3 -3 -3 -35 -13 -73z m1174 -10 c98 -97 132 -155 132 -224 0 -56 -39
-140 -78 -167 -37 -27 -172 -92 -189 -92 -17 0 -17 4 8 52 41 80 53 138 52
258 0 74 -6 137 -16 178 -10 35 -17 68 -17 73 0 22 25 4 108 -78z m-943 6
c100 -53 163 -70 271 -76 152 -9 290 30 421 117 l31 21 10 -48 c6 -26 14 -80
17 -119 l7 -71 -38 -30 c-119 -93 -250 -137 -409 -137 -159 0 -290 44 -409
137 l-38 30 7 71 c3 39 11 93 17 119 10 47 10 48 31 33 12 -9 49 -30 82 -47z
m1404 -716 c-13 -27 -37 -55 -62 -71 l-41 -27 -415 -3 -415 -3 40 29 c21 16
75 67 118 113 l79 84 229 5 c213 5 231 6 244 24 11 16 14 62 14 210 l1 191
112 78 112 78 3 -332 c2 -321 2 -334 -19 -376z m-2081 568 l102 -84 0 -158 c0
-216 -22 -199 261 -199 l222 0 81 -87 c44 -47 99 -99 120 -115 l39 -28 -403 0
c-391 0 -405 1 -448 21 -26 13 -54 38 -70 62 l-27 40 -3 324 c-2 271 -1 323
11 316 7 -4 59 -46 115 -92z m845 -344 c152 -33 299 -14 444 59 46 23 83 39
83 37 0 -3 -16 -35 -35 -72 -66 -126 -187 -251 -304 -315 l-47 -25 -59 35
c-124 75 -224 180 -289 304 -20 37 -36 70 -36 73 0 2 37 -14 83 -37 46 -23
118 -50 160 -59z m-1069 -558 c53 -25 69 -110 40 -210 -15 -49 -73 -151 -95
-165 -18 -11 -8 -21 31 -33 45 -13 86 -60 96 -109 6 -28 10 -32 39 -32 29 0
37 6 59 45 39 65 103 100 184 100 60 0 66 -2 94 -34 27 -30 30 -39 25 -78 -7
-64 -51 -106 -141 -136 l-71 -24 32 -16 c47 -25 101 -21 164 11 53 27 54 28
64 87 22 123 97 190 213 190 59 0 66 -2 93 -33 33 -37 37 -77 14 -125 -21 -42
-52 -64 -133 -91 l-67 -23 32 -16 c45 -24 99 -21 158 7 87 41 86 39 90 156 8
229 92 462 188 521 63 38 133 17 158 -48 14 -36 11 -131 -6 -196 -24 -94 -103
-238 -209 -383 -7 -8 -6 -22 2 -38 10 -22 18 -26 55 -26 65 0 117 41 117 93 0
53 32 169 52 189 13 13 30 18 56 16 32 -3 37 -7 40 -31 2 -15 -6 -70 -18 -122
-26 -111 -22 -145 17 -145 42 0 73 36 73 85 0 60 45 143 97 179 80 55 202 45
232 -20 39 -86 -19 -167 -146 -205 -24 -7 -43 -16 -43 -20 0 -9 57 -29 85 -29
32 0 104 27 142 53 l33 22 0 105 c0 116 6 130 54 130 52 0 55 -7 62 -143 4
-70 11 -130 15 -133 4 -2 24 18 42 46 29 43 34 58 30 91 -10 72 38 139 100
139 59 0 84 -55 57 -125 -10 -27 -10 -27 27 -20 21 4 39 10 41 13 1 4 11 21
22 39 62 103 248 126 289 37 39 -86 -19 -167 -146 -205 -24 -7 -43 -15 -43
-19 0 -4 13 -13 30 -20 43 -18 95 -4 139 36 45 40 68 43 77 10 6 -26 -13 -71
-43 -98 -50 -46 -168 -63 -236 -34 -41 16 -93 75 -101 113 -7 28 -9 29 -69 31
l-62 1 -45 -60 c-57 -75 -97 -101 -147 -97 -29 2 -42 10 -58 34 l-20 30 -58
-30 c-95 -49 -210 -49 -283 0 -30 20 -42 24 -54 15 -80 -58 -150 -66 -200 -25
l-31 27 -48 -27 c-82 -44 -171 -32 -219 29 l-21 26 -40 -25 c-22 -14 -68 -33
-101 -43 -77 -21 -173 -8 -223 30 l-31 24 -61 -28 c-76 -36 -136 -44 -206 -30
-68 14 -115 52 -133 106 -12 33 -19 41 -43 43 -26 3 -33 -2 -54 -45 -15 -28
-43 -60 -68 -78 -36 -26 -52 -30 -104 -30 -107 1 -155 48 -177 178 -9 51 -9
91 0 169 36 309 165 505 294 447z m1414 -225 c54 -37 8 -114 -69 -114 -72 0
-102 58 -54 105 29 29 88 34 123 9z"/>
<path d="M2505 1998 c-28 -41 -86 -270 -85 -338 1 -46 125 198 136 265 12 83
-15 122 -51 73z"/>
<path d="M3732 2007 c-33 -40 -85 -237 -97 -372 l-6 -70 26 40 c61 96 110 223
121 314 8 77 -15 124 -44 88z"/>
<path d="M2446 1580 c-45 -54 -46 -132 -4 -177 28 -30 59 -29 92 2 32 30 33
44 1 91 -24 35 -30 57 -26 97 3 28 -34 20 -63 -13z"/>
<path d="M2897 1599 c-22 -13 -47 -61 -47 -93 0 -24 2 -24 33 -14 49 17 77 38
83 64 11 43 -27 67 -69 43z"/>
<path d="M3277 1599 c-22 -13 -47 -61 -47 -93 0 -24 2 -24 33 -14 49 17 77 38
83 64 11 43 -27 67 -69 43z"/>
<path d="M4203 1595 c-23 -16 -52 -90 -40 -101 20 -20 117 42 117 75 0 39 -40
52 -77 26z"/>
<path d="M5013 1595 c-22 -16 -52 -90 -40 -101 9 -10 69 14 94 38 52 48 4 103
-54 63z"/>
</g>
</svg>
